<?xml version="1.0" standalone="no"?>
<!DOCTYPE svg PUBLIC "-//W3C//DTD SVG 20010904//EN"
 "http://www.w3.org/TR/2001/REC-SVG-20010904/DTD/svg10.dtd">
<svg version="1.0" xmlns="http://www.w3.org/2000/svg"
 width="94.000000pt" height="72.000000pt" viewBox="0 0 94.000000 72.000000"
 preserveAspectRatio="xMidYMid meet">

<g transform="translate(0.000000,72.000000) scale(0.100000,-0.100000)"
fill="#000000" stroke="none">
<path d="M447 653 c-4 -3 -7 -44 -7 -90 0 -82 0 -83 25 -83 24 0 25 2 25 74 0
41 -3 81 -6 90 -6 16 -26 21 -37 9z"/>
<path d="M200 513 c-25 -9 -61 -46 -85 -88 -48 -82 -104 -319 -85 -355 29 -55
96 -24 228 106 l97 94 112 0 c111 0 113 0 130 -26 24 -37 180 -173 220 -192
27 -13 37 -13 59 -3 26 11 26 14 20 74 -9 90 -52 244 -85 302 -34 61 -81 95
-130 95 -39 0 -98 -31 -107 -55 -5 -12 -27 -15 -110 -15 -88 0 -105 3 -116 18
-32 44 -97 64 -148 45z m66 -87 c3 -15 16 -27 31 -30 31 -8 28 -40 -5 -44 -13
-2 -22 -10 -22 -21 0 -22 -25 -45 -40 -36 -5 3 -10 17 -10 30 0 18 -6 24 -27
27 -38 4 -41 27 -4 41 17 6 31 19 31 28 0 36 37 40 46 5z m442 7 c5 -17 -26
-29 -40 -15 -6 6 -7 15 -3 22 9 14 37 9 43 -7z m-60 -60 c5 -17 -26 -29 -40
-15 -6 6 -7 15 -3 22 9 14 37 9 43 -7z m110 0 c-2 -10 -10 -18 -18 -18 -8 0
-16 8 -18 18 -2 12 3 17 18 17 15 0 20 -5 18 -17z m-59 -47 c8 -10 8 -16 -2
-24 -17 -14 -42 2 -34 22 8 20 21 20 36 2z"/>
</g>
</svg>
